<svg xmlns="http://www.w3.org/2000/svg" width="512" height="512" enable-background="new 0 0 512 512" viewBox="0 0 512 512"><path d="M57.29,493.669c-1.244,0-2.487-0.321-3.601-0.965c-2.228-1.286-3.601-3.664-3.601-6.236V26.47
				c0-2.572,1.373-4.95,3.601-6.236c2.229-1.287,4.973-1.286,7.202-0.001l199.128,114.949L459.25,250.232
				c2.228,1.286,3.6,3.664,3.6,6.236s-1.372,4.95-3.6,6.236L260.02,377.756L60.891,492.705
				C59.776,493.348,58.533,493.669,57.29,493.669z M64.492,38.942v435.053l188.326-108.713l188.431-108.813L252.816,147.655
				L64.492,38.942z"/></svg>